# xmcd
#
# Track frame offsets: 
#        150
#        14138
#        25587
#        39481
#        51812
#        63058
#        79562
#        89700
#        102171
#        114952
#        124282
#        137372
#        156852
#        173812
#        193587
#        208177
#        217335
#        234945
#        245777
#        259562
#
# Disc length: 3624 seconds
#
# Revision: 0
# Processed by: cddbd v1.5.2PL0 Copyright (c) Steve Scherf et al.
# Submitted via: ExactAudioCopy v1.0b1
#
DISCID=140e2614
DTITLE=Various Artist - 100 Golden Country Hits CD5
DYEAR=1900
DGENRE=Country
TTITLE0=John Denver - Take Me Home Country Roads
TTITLE1=Don Gibson - Oh Lonesome Me
TTITLE2=Juice Newton - Listen To The Radio
TTITLE3=Charlie Rich - Behind Closed Doors
TTITLE4=Tammy Wynette - Divorce
TTITLE5=Gordon Lightfoot - Diddley Dee, Diddley Dee
TTITLE6=Patsy Cline - Three Cigarettes In An Ashtray
TTITLE7=Sonny James - Running Bear
TTITLE8=Stella Parton - Legs
TTITLE9=Frank Ifield - I Remember You
TTITLE10=Tanya Tucker - The Man That Turned My Mother On
TTITLE11=Kenny Rogers - She Believes In Me
TTITLE12=Lynn Anderson - Blue Bayou
TTITLE13=Lee Hazlewood - The Ballad Of Lucy Jordan
TTITLE14=Jeannie C. Riley - Harper Valley PTA
TTITLE15=Frankie Laine - Rawhide
TTITLE16=Crystal Gayle - Our Love Is On The Fault Line
TTITLE17=Johnny Cash - Cold Cold Heart
TTITLE18=Anne Murray - The Last Thing On My Mind
TTITLE19=Bobby Bare - Green Green Grass Of Home
EXTD=
EXTT0=
EXTT1=
EXTT2=
EXTT3=
EXTT4=
EXTT5=
EXTT6=
EXTT7=
EXTT8=
EXTT9=
EXTT10=
EXTT11=
EXTT12=
EXTT13=
EXTT14=
EXTT15=
EXTT16=
EXTT17=
EXTT18=
EXTT19=
PLAYORDER=
